<?xml version="1.0" encoding="UTF-8"?>
<svg id="Layer_1" xmlns="http://www.w3.org/2000/svg" version="1.1" viewBox="0 0 1000 1000">
  <!-- Generator: Adobe Illustrator 29.2.1, SVG Export Plug-In . SVG Version: 2.1.0 Build 116)  -->
  <defs>
    <style>
      .st0 {
        fill: #fe5c66;
      }

      .st1 {
        fill: #f7f4ec;
      }
    </style>
  </defs>
  <path class="st0" d="M242.3,0h515.4C891.4,0,1000,108.6,1000,242.3v515.4c0,133.7-108.6,242.3-242.3,242.3H242.3C108.6,1000,0,891.4,0,757.7V242.3C0,108.6,108.6,0,242.3,0Z"/>
  <g>
    <circle class="st1" cx="500" cy="500" r="322.4"/>
    <g>
      <path class="st0" d="M500,763c-145.7,0-264.2-118.5-264.2-264.2v-57h70.6v57c0,106.8,86.9,193.7,193.7,193.7s193.7-86.9,193.7-193.7v-57h70.6v57c0,145.7-118.5,264.2-264.2,264.2Z"/>
      <circle class="st0" cx="499.3" cy="388.1" r="69.8"/>
    </g>
  </g>
</svg>